<?xml version="1.0" encoding="UTF-8"?>
<svg version="1.1" viewBox="0 0 39.583 24.858" xmlns="http://www.w3.org/2000/svg" xmlns:cc="http://creativecommons.org/ns#" xmlns:dc="http://purl.org/dc/elements/1.1/" xmlns:rdf="http://www.w3.org/1999/02/22-rdf-syntax-ns#">
<metadata>
<rdf:RDF>
<cc:Work rdf:about="">
<dc:format>image/svg+xml</dc:format>
<dc:type rdf:resource="http://purl.org/dc/dcmitype/StillImage"/>
<dc:title/>
</cc:Work>
</rdf:RDF>
</metadata>
<g transform="translate(-97.204 -1022.5)">
<g transform="translate(5.3777 -.070988)">
<rect x="91.826" y="1022.6" width="39.583" height="24.858" rx="2.1111" fill="#007cc1" fill-rule="evenodd"/>
<g transform="matrix(1.1037 0 0 1.1037 -11.589 -105.82)" fill="#fff">
<path class="st1" d="m99.283 1034h2l-1-2.5"/>
<path class="st1" d="m128.58 1029.3h-5.1c-0.1 0-0.2 0.1-0.2 0.1-0.4 0.4-0.7 0.8-1.1 1.2-0.3-0.4-0.7-0.8-1-1.2-0.1-0.1-0.1-0.1-0.3-0.1h-11.7c-0.1 0-0.2 0.1-0.2 0.2l-0.9 2c-0.3-0.7-0.6-1.4-0.9-2-0.1-0.1-0.1-0.2-0.3-0.2h-8.4c-0.2 0-0.2 0.1-0.3 0.2l-3.6 8.5h4.4c0.1 0 0.1-0.1 0.2-0.1 0.2-0.4 0.3-0.8 0.5-1.1 0-0.1 0.1-0.1 0.2-0.1h1c0.1 0 0.2 0 0.2 0.2 0.1 0.3 0.3 0.7 0.4 1 0.1 0.2 0.1 0.2 0.3 0.2h18.9c0.3 0 0.4-0.1 0.6-0.3 0.3-0.4 0.6-0.7 1-1.1 0.4 0.4 0.7 0.9 1.1 1.3 0.1 0.1 0.2 0.1 0.3 0.1h5c-1.3-1.4-2.6-2.9-3.8-4.3 1-1.6 3.7-4.5 3.7-4.5zm-16.2 7.4h-1.5v-4.8s-1.4 3.2-2.1 4.6c-0.1 0.1-0.1 0.2-0.2 0.2h-0.9c-0.1 0-0.2 0-0.2-0.2l-2.1-4.6v4.8h-2.8c-0.1 0-0.2-0.1-0.3-0.2-0.1-0.4-0.3-0.7-0.4-1.1 0-0.1-0.1-0.1-0.2-0.1h-2.8c-0.1 0-0.2 0-0.2 0.1-0.1 0.4-0.3 0.8-0.5 1.1 0 0.1-0.1 0.2-0.1 0.2h-1.5l2.5-6.1c0.1-0.1 0.1-0.2 0.3-0.2h1.8c0.1 0 0.2 0 0.3 0.2l2.4 5.6v-5.8h2.2c0.1 0 0.2 0 0.2 0.2l1.8 4 1.7-4.1c0-0.1 0.1-0.2 0.1-0.2h2.3l0.2 6.4zm13.3 0h-1.6c-0.2 0-0.4-0.1-0.5-0.2 0 0-1.6-1.8-1.6-1.9 0 0-1.4 1.5-1.8 2-0.1 0.1-0.1 0.1-0.2 0.1h-6.4v-6.2h6.5c0.2 0 0.3 0 0.4 0.2 0.5 0.6 1 1.2 1.6 1.9l1.8-1.9s0.1-0.1 0.2-0.1h1.8c-1 1.1-1.9 2.1-2.8 3.1 0.8 0.9 1.7 2 2.6 3z"/>
<path class="st1" d="m118.58 1030.8v1h-3.5v1.1h3.5v1.3h-3.5v1.2h3.5v0.9c0.9-0.9 1.7-1.8 2.5-2.8l-2.5-2.7z"/>
</g>
</g>
</g>
</svg>
