<?xml version="1.0" encoding="UTF-8"?>
<svg version="1.1" viewBox="0 0 39.583 24.858" xmlns="http://www.w3.org/2000/svg" xmlns:cc="http://creativecommons.org/ns#" xmlns:dc="http://purl.org/dc/elements/1.1/" xmlns:rdf="http://www.w3.org/1999/02/22-rdf-syntax-ns#">
<metadata>
<rdf:RDF>
<cc:Work rdf:about="">
<dc:format>image/svg+xml</dc:format>
<dc:type rdf:resource="http://purl.org/dc/dcmitype/StillImage"/>
<dc:title/>
</cc:Work>
</rdf:RDF>
</metadata>
<g transform="translate(-51.213 -1022.5)">
<g transform="translate(5.2377)">
<path d="m48.086 1022.5h35.361c1.1695 0 2.1111 0.9415 2.1111 2.1111v20.636c0 1.1695-0.94154 2.1111-2.1111 2.1111h-35.361c-1.1695 0-2.1111-0.9416-2.1111-2.1111v-20.636c0-1.1696 0.94154-2.1111 2.1111-2.1111z" fill-rule="evenodd"/>
<g transform="matrix(.44012 0 0 .44012 -406.04 727.5)">
<path d="m1080.6 714.05h-17.202v-30.915h17.202v30.915z" fill="#ff5f00"/>
<g transform="matrix(1.25 0 0 -1.25 1064.5 698.59)">
<path d="m0 0c0 5.017 2.349 9.486 6.007 12.366-2.675 2.106-6.051 3.363-9.72 3.363-8.686 0-15.727-7.042-15.727-15.729s7.041-15.729 15.727-15.729c3.669 0 7.045 1.257 9.72 3.363-3.658 2.88-6.007 7.349-6.007 12.366" fill="#eb001b"/>
</g>
<g transform="matrix(1.25 0 0 -1.25 1103.8 698.59)">
<path d="m0 0c0-8.687-7.041-15.729-15.727-15.729-3.669 0-7.045 1.257-9.721 3.363 3.659 2.88 6.008 7.349 6.008 12.366s-2.349 9.486-6.008 12.366c2.676 2.106 6.052 3.363 9.721 3.363 8.686 0 15.727-7.042 15.727-15.729" fill="#f79e1b"/>
</g>
</g>
</g>
</g>
</svg>
