<?xml version="1.0" encoding="UTF-8"?>
<svg version="1.1" viewBox="0 0 39.583 24.858" xmlns="http://www.w3.org/2000/svg" xmlns:cc="http://creativecommons.org/ns#" xmlns:dc="http://purl.org/dc/elements/1.1/" xmlns:rdf="http://www.w3.org/1999/02/22-rdf-syntax-ns#">
<metadata>
<rdf:RDF>
<cc:Work rdf:about="">
<dc:format>image/svg+xml</dc:format>
<dc:type rdf:resource="http://purl.org/dc/dcmitype/StillImage"/>
<dc:title/>
</cc:Work>
</rdf:RDF>
</metadata>
<g transform="translate(-5.2216 -1022.5)">
<g transform="translate(5.2216)" fill-rule="evenodd">
<path d="m2.1111 1022.5h35.361c1.1695 0 2.1111 0.9415 2.1111 2.1111v20.636c0 1.1695-0.94154 2.1111-2.1111 2.1111h-35.361c-1.1695 0-2.1111-0.9416-2.1111-2.1111v-20.636c0-1.1696 0.94154-2.1111 2.1111-2.1111z" fill="#10357e"/>
<g transform="matrix(1.0054 0 0 1.0054 -.10688 -5.6194)" fill="#fff">
<path d="m14.682 1040.2 1.7606-10.332h2.8162l-1.7619 10.332zm12.989-10.109c-0.55796-0.2093-1.4322-0.4339-2.524-0.4339-2.7827 0-4.7428 1.4012-4.7594 3.4096-0.01573 1.4846 1.3993 2.3126 2.4675 2.8069 1.0962 0.5063 1.4647 0.8293 1.4595 1.2816-7e-3 0.6924-0.87541 1.0089-1.6848 1.0089-1.1272 0-1.726-0.1566-2.6509-0.5424l-0.36284-0.1641-0.3953 2.3128c0.65781 0.2885 1.8741 0.5384 3.137 0.5513 2.9603 0 4.8819-1.3853 4.9038-3.5299 0.01066-1.1752-0.73962-2.0697-2.3643-2.8071-0.98434-0.4779-1.5872-0.7969-1.5808-1.2808 0-0.4294 0.5102-0.8887 1.6127-0.8887 0.92096-0.014 1.5881 0.1866 2.1078 0.3958l0.25227 0.1193 0.38184-2.2394m7.2466-0.2227h-2.176c-0.67417 0-1.1786 0.184-1.4747 0.8567l-4.1823 9.4684h2.9571s0.4836-1.2731 0.59295-1.5526h3.6066c0.08418 0.3617 0.34252 1.5481 0.34252 1.5481h2.6131l-2.2793-10.325zm-3.4526 6.6713c0.2329-0.5953 1.122-2.8881 1.122-2.8881-0.01668 0.027 0.23116-0.5982 0.3734-0.9861l0.19031 0.8909s0.53922 2.4661 0.6519 2.9833zm-19.174-6.6713-2.7571 7.0455-0.29381-1.4318c-0.79897-3.4088-2.0465-4.6475-3.9001-4.334l2.5209 9.0356h2.9796l4.4335-10.312h-2.983"/>
<path d="m6.9623 1029.8h-4.5409l-0.036047 0.2149c3.5329 0.8552 5.8705 2.9219 6.8408 5.4051l-0.98735-4.7478c-0.17047-0.6542-0.66499-0.8494-1.2766-0.8722"/>
</g>
</g>
</g>
</svg>
